
<global>
amp_veltrack=0
ampeg_release=0.35
</global>

<group>
group_label=Group_0-45
lpc_hicc1=42
lpc_locc1=0

<region>
hikey=a#4
hivel=127
lokey=a4
loop_end=262702
loop_mode=loop_continuous
loop_start=58296
loop_xfade=24768
lovel=1
lpc=RjucQQ6cMMIMYQNCl0U1wZ0cLkHUA8vABkClwJ3NJkFLAhHBdePaQDG1/cBtJKpAPbonP8l7cL8Tcw1A4E2ZwFZfM0DmFAi/d0P+PdKw1T+AETHAEygEQAojbr93/hU+
lpc_rms=-30.53
pitch_keycenter=a#4
sample=Oboe_trill_wholetone_PP_A#4.opus
</region>

<region>
hikey=a#5
hivel=127
lokey=a5
loop_end=257794
loop_mode=loop_continuous
loop_start=57207
loop_xfade=24305
lovel=1
lpc=Z5GtQe7gM8LhGxxCTWGlwRcSeUFYCgzBwcZBv14k2UAviGnATy32P1/Ckr9gjvE/LY/zPz4RJ8Ca+x5AuDYSwJkLrkBxtBTAammCvc9XJEBwnCXAKEK9P/BgBcC1cDdA
lpc_rms=-27.40
pitch_keycenter=a#5
sample=Oboe_trill_wholetone_PP_A#5.opus
</region>

<region>
hivel=127
key=c4
loop_end=253314
loop_mode=loop_continuous
loop_start=56213
loop_xfade=23883
lovel=1
lpc=FYURQvAR2sIIEPxCCwCDwlh2QUE/rMU/44KTQOiwMMGxMARBF1M8wLmI+L7Dch5Ai2gKwOMJdkCk18/AN6gYQZ6ZGMGpAIZAK4C7v7PPDEBHIP+/UGV1QCBImMAfZwZA
lpc_rms=-28.25
sample=Oboe_trill_wholetone_PP_C4.opus
</region>

<region>
hikey=c5
hivel=127
lokey=b4
loop_end=279718
loop_mode=loop_continuous
loop_start=119384
loop_xfade=9768
lovel=1
lpc=VRLNQSdZg8JNDmBCMv6bwIg2iMHZqUJAC2MdQVOGE8AlMwTBiqKkQBW2AcByqYNAn6SuP7619MB+48FAVlxNPaJAusCVSfVATN6rwIwaIEBWyjK/1/cYPwSYEL/3WaK8
lpc_rms=-28.15
offset=42749
pitch_keycenter=c5
sample=Oboe_trill_wholetone_PP_C5.opus
</region>

<region>
hikey=c6
hivel=127
lokey=b5
loop_end=261461
loop_mode=loop_continuous
loop_start=58021
loop_xfade=24651
lovel=1
lpc=Gmm7QQ/fV8Kui15CwkSmwaQy+8AYoXZB1GyywBnl8D+8BLq/cmzWQKUsv8CYWWtAY++BQMSYb8AS8WZAC7JhwK7t7kCdrtO+9ITxwPWqP0H8cYjAIT+hwLNeykCNH26/
lpc_rms=-28.35
pitch_keycenter=c6
sample=Oboe_trill_wholetone_PP_C6.opus
</region>

<region>
hikey=d4
hivel=127
lokey=c#4
loop_end=267277
loop_mode=loop_continuous
loop_start=59311
loop_xfade=25199
lovel=1
lpc=hdPPQSx9gcItoF5CPFCTwfLf+UA8hxPBVV+hQPwubz987V3A/VDbP4TItL7aDNQ++6/Xvy8zhT8Qm5VAJp7DwM2ihT9fy0xAYJapwH91iEBEhYE+Srrdv8Idwb5CwUE/
lpc_rms=-27.18
pitch_keycenter=d4
sample=Oboe_trill_wholetone_PP_D4.opus
</region>

<region>
hikey=d5
hivel=127
lokey=c#5
loop_end=253657
loop_mode=loop_continuous
loop_start=56289
loop_xfade=23915
lovel=1
lpc=GxAMQmgxuMJyI7lCK/IzwqHMkkHeKyvB0JCaQFxLuL90teO/lzC2QJ5kF8BbXl3A0LKdP1CYjUDOmzDAe+bkP7xsj8C/wdlAwKuawABjO7+I2iNArBvKQNVqP8GbqspA
lpc_rms=-28.03
pitch_keycenter=d5
sample=Oboe_trill_wholetone_PP_D5.opus
</region>

<region>
hikey=d6
hivel=127
lokey=c#6
loop_end=261758
loop_mode=loop_continuous
loop_start=58087
loop_xfade=24679
lovel=1
lpc=2bMbQiblmcJipZlC/qYpwtBHmkG2awO9jZaHwDOQLkHXhak+DATrv9kl7UBpiCpAix15P2nuwz/RwfdAxf5/P6kCbLyz6Kk/0MYCwHqw8UAaEZ7AU1xmQR27gMEa2ixB
lpc_rms=-21.47
pitch_keycenter=d6
sample=Oboe_trill_wholetone_PP_D6.opus
</region>

<region>
hikey=e4
hivel=127
lokey=d#4
loop_end=248378
loop_mode=loop_continuous
loop_start=55117
loop_xfade=23418
lovel=1
lpc=pKaUQaKVL8LMjxRCE0eVwe96hkFwEy3B3UnIPy4MfL8zOoc/rKFLP68cnr4/aPS+AGT7PfrugT0bsac/9opVv6qZjL58Kqm+jmGjPx/SFsDCn4BAepGbwCbEZ0DFXoW/
lpc_rms=-29.32
pitch_keycenter=e4
sample=Oboe_trill_wholetone_PP_E4.opus
</region>

<region>
hikey=e5
hivel=127
lokey=d#5
loop_end=260645
loop_mode=loop_continuous
loop_start=57840
loop_xfade=24574
lovel=1
lpc=T0GoQWsgMcI0HxNCi56TwQHYVUEjw9XAHGLYv/VZkUAyDNG/nkgwPkzRsD9SVhnA9k5UPwJwAUC8kEc/mcxGvnBbur9jIJc/wkXMv3VIC0DYHSY+eYUbv2iGh76QrN4/
lpc_rms=-29.01
pitch_keycenter=e5
sample=Oboe_trill_wholetone_PP_E5.opus
</region>

<region>
hikey=G#6
hivel=127
lokey=d#6
loop_end=262408
loop_mode=loop_continuous
loop_start=58231
loop_xfade=24740
lovel=1
lpc=ptGnQY5JJMJT1TZCSO/bwa00KkGEppo/JO/LPwpFPUBiaS+/dIl/QOQfMD8kq7hAr8R6wO2mE0G80X3A5wn8QPSN08C5aOS+Y/qbQaZ94cGkf+ZBL1VjwbAtXkBa5AJA
lpc_rms=-32.51
pitch_keycenter=E6
sample=Oboe_trill_wholetone_PP_E6.opus
</region>

<region>
hikey=f#4
hivel=127
lokey=f4
loop_end=253942
loop_mode=loop_continuous
loop_start=56352
loop_xfade=23942
lovel=1
lpc=j46oQXQJXsJhl0FC9xNTwHQ8qsFQ9IBBHZZSwDf4TcDINg9AFk8AwNkK4r6pJgJBIPcvwdPO5UAaPos+phblwOz/BkEKQafA+4zzP9S1k7/zvsU+ao+DQK36wsASriNA
lpc_rms=-30.36
pitch_keycenter=f#4
sample=Oboe_trill_wholetone_PP_F#4.opus
</region>

<region>
hikey=f#5
hivel=127
lokey=f5
loop_end=260565
loop_mode=loop_continuous
loop_start=57822
loop_xfade=24566
lovel=1
lpc=NmTiQXF4jMJTWXlCkADqwGT7zcECEp9BDrYFwKsWicAI1qdANCzLwD8acz91VRVBQUomwRrL7kBLOyfAsXePwCT/C0GisdjAigDOQNEuLcDB6nPAsm7aQPeAYsCPKZo/
lpc_rms=-29.02
pitch_keycenter=f#5
sample=Oboe_trill_wholetone_PP_F#5.opus
</region>

<region>
hikey=g#4
hivel=127
lokey=g4
loop_end=234277
loop_mode=loop_continuous
loop_start=51988
loop_xfade=22088
lovel=1
lpc=YNW2QfIqWsJazRNCBWYyQX/BoMFM/yA+spIzQeKRMsHR1ppA7iv4P9mC4cBNOgNBTS/HvZbvr8B16IA/QC53P+pBFUCWuSzAGLR5P3I/a8BF7bFAr1wSQF+3BsH1+ZFA
lpc_rms=-29.95
pitch_keycenter=g#4
sample=Oboe_trill_wholetone_PP_G#4.opus
</region>

<region>
hikey=g#5
hivel=127
lokey=g5
loop_end=258382
loop_mode=loop_continuous
loop_start=57337
loop_xfade=24361
lovel=1
lpc=jxnAQWf9QsLenfVBwh2wQF87T8EGN7hAgQhCP9uMH8B3ZcZAOhCLvzveK8EoiV5BqTElwOueTMDs/aS/HYOcQIRSD0B5aQFAarsrwZNi7EC0ZV9A0MSvwPB1DkBXwIE/
lpc_rms=-29.79
pitch_keycenter=g#5
sample=Oboe_trill_wholetone_PP_G#5.opus
</region>
</group>

<group>
group_label=Group_46-90
lpc_hicc1=84
lpc_locc1=43

<region>
hikey=a#4
hivel=127
lokey=a4
loop_end=258467
loop_mode=loop_continuous
loop_start=57356
loop_xfade=24369
lovel=1
lpc=YslqQfqvB8J64fxB75KWwcrKa0FKDxnBWlDOPTpa5UDE/KPANwweQPTMZMCdbzE+jSueQCaXT8B+fGhAEtCawD19FEDTSJ8/Q7M3wLpae0Dyr3LAQIU4QKdXm79iROY+
lpc_rms=-27.79
pitch_keycenter=a#4
sample=Oboe_trill_wholetone_MF_A#4.opus
tune=25
</region>

<region>
hikey=a#5
hivel=127
lokey=a5
loop_end=268579
loop_mode=loop_continuous
loop_start=59600
loop_xfade=25322
lovel=1
lpc=rVKXQfr+IsIvMyNC4hq+wQuYRkEzfznAurKswDvtPUHQfBrBbBbgQLcGdsDjSIc/oBSOQNQJxMBLORlBB/c0wSQKNUHUWXTAeRbOv0Q3pEAZw5bAEJmyQJjdxcCgpnFA
lpc_rms=-23.16
pitch_keycenter=a#5
sample=Oboe_trill_wholetone_MF_A#5.opus
tune=35
</region>

<region>
hivel=127
key=c4
loop_end=239521
loop_mode=loop_continuous
loop_start=53152
loop_xfade=22582
lovel=1
lpc=9wUYQgtq38LFJgNDZeKXwt7xt0GUZorASe9ZQLBlrcBt+O9Ai6fowN56NEBuy92/6y6tQLWnVcBpuSbAknAIQWkLOMHEe9VAX3txP9KkaMAIaWs+ro20QKn8wsDyPhdA
lpc_rms=-22.49
sample=Oboe_trill_wholetone_MF_C4.opus
</region>

<region>
hikey=c5
hivel=127
lokey=b4
loop_end=260666
loop_mode=loop_continuous
loop_start=57844
loop_xfade=24576
lovel=1
lpc=+onFQWP4gcJvOXZCUjOBwWc3GcHzEpRAJ8TvP1gYnUDmXgnB3J4FQBJaM7+XcgpA9g6MQG9cAsEoQb5Aa+8hwG6zIcD7jthAZaPSwNzFOEAweuY/eBJywFbaQkD4sKe/
lpc_rms=-25.65
pitch_keycenter=c5
sample=Oboe_trill_wholetone_MF_C5.opus
</region>

<region>
hikey=c6
hivel=127
lokey=b5
loop_end=266708
loop_mode=loop_continuous
loop_start=59185
loop_xfade=25146
lovel=1
lpc=5rhmQS2M88G5kwlCInWTwUFCb0CcFZFAs8+oPrVbHsDVsbdAQs0lwN8eSkDjSoC/pgoyQFweZT/2NjU/vLgav8YajEC1fAS99WZywP0eIEFxoRzBmz38QIROe8BuFB9A
lpc_rms=-28.12
pitch_keycenter=c6
sample=Oboe_trill_wholetone_MF_C6.opus
</region>

<region>
hikey=d4
hivel=127
lokey=c#4
loop_end=259163
loop_mode=loop_continuous
loop_start=57511
loop_xfade=24434
lovel=1
lpc=0MvOQUy3fMJNMVZCedikwTWZTkHdyiDBpX8/QM2v+b45XPi+3CHIP6IwIcDBXy9Ax30XwC8CRD8yFQdAZ+AewONxLkB1D2TA3nctQEA4LcAleh5AyAh3P0OwOcB/ALU/
lpc_rms=-25.69
pitch_keycenter=d4
sample=Oboe_trill_wholetone_MF_D4.opus
</region>

<region>
hikey=d5
hivel=127
lokey=c#5
loop_end=263600
loop_mode=loop_continuous
loop_start=58495
loop_xfade=24853
lovel=1
lpc=+qcIQt9lv8IqHOlCHiKewremD0KxCmbBGEdEQKtB1kDDkOzA1fyRQEaVqr8oJIXA+vPIQIOejLyg2PS+Q16RwN8xLkBrMUJALy+1v1+Gqb/kG4DAVQlPQS0KTsHZIblA
lpc_rms=-22.80
pitch_keycenter=d5
sample=Oboe_trill_wholetone_MF_D5.opus
</region>

<region>
hikey=d6
hivel=127
lokey=c#6
loop_end=261267
loop_mode=loop_continuous
loop_start=57978
loop_xfade=24633
lovel=1
lpc=nkALQrSdhcLns4dC3ewlws5lpEFLRCtAKPE1wTyckEGC3CfA36ljwCfZIkH44ym/nqhEP6p+7UD71T/AAB8bQZh+SsAmri5ASgqBwPQo0EDx7yXATwY0QdAZRsFVWQpB
lpc_rms=-20.23
pitch_keycenter=d6
sample=Oboe_trill_wholetone_MF_D6.opus
</region>

<region>
hikey=e4
hivel=127
lokey=d#4
loop_end=262390
loop_mode=loop_continuous
loop_start=58227
loop_xfade=24739
lovel=1
lpc=h/ekQUo4RcKR+DZCCbDKwZwboUEeRYbBKhXrQNSxgD+1AsC/r3flvQd6J77fqRy//z81P+4UcT/Av5Q+SlwmvhIwvT62TonAngXbQHABocCDh7A/FDOLPiP9UT/OPTy/
lpc_rms=-25.91
pitch_keycenter=e4
sample=Oboe_trill_wholetone_MF_E4.opus
</region>

<region>
hikey=e5
hivel=127
lokey=d#5
loop_end=262076
loop_mode=loop_continuous
loop_start=58157
loop_xfade=24709
lovel=1
lpc=TwXoQZT/jsKnjZVCByo9wmUNDEIOJQPCB4y2QRCofMDdA4TA1lM5QHY9b8D1jbBAz2QsvwmjkT+pfo3AeXBsQF3jTD8Ij5DAUwwTQSaDF8GY3n9AvZnfP1mBNMBGmfY/
lpc_rms=-20.53
pitch_keycenter=e5
sample=Oboe_trill_wholetone_MF_E5.opus
</region>

<region>
hikey=G#6
hivel=127
lokey=d#6
loop_end=262942
loop_mode=loop_continuous
loop_start=58349
loop_xfade=24791
lovel=1
lpc=/1SrQYfWKcJhNUBCud3ywctaVkGF4LC/qD5hQKzTzz8xebo+qfFEQAOEoD+TiKVAS20+wJ2v7EB4krq/f6OOQCwPl79HZwLBTALWQaEOAcK89eZBQcJAwRsy5j9YrB5A
lpc_rms=-29.55
pitch_keycenter=E6
sample=Oboe_trill_wholetone_MF_E6.opus
</region>

<region>
hikey=f#4
hivel=127
lokey=f4
loop_end=264171
loop_mode=loop_continuous
loop_start=58622
loop_xfade=24906
lovel=1
lpc=8qWrQVvKbsJbD3VCoiSZwW+WQsFupEBBxhiPv0x3XsCoRsVA9GYZwZtRjkAk86hAa1DbwIR0f0DNnX4/F2EFwZ8tIUHTp/i/K9erwCmanUAzfIDA1w/DQDlBosA4ics/
lpc_rms=-26.44
pitch_keycenter=f#4
sample=Oboe_trill_wholetone_MF_F#4.opus
</region>

<region>
hikey=f#5
hivel=127
lokey=f5
loop_end=264311
loop_mode=loop_continuous
loop_start=58653
loop_xfade=24920
lovel=1
lpc=mhoGQkOqu8Jfgd5CENpawpkGSsFGDg5CwRaLwcrjEECVC8o/Am/0wIulXUGlUafAupizwKgP6ECrDqk/iFTlwJ6wHUF0OQ/BudSzQDLPOj8zCI+/GU67P775EsBaMhhA
lpc_rms=-22.84
pitch_keycenter=f#5
sample=Oboe_trill_wholetone_MF_F#5.opus
</region>

<region>
hikey=g#4
hivel=127
lokey=g4
loop_end=262872
loop_mode=loop_continuous
loop_start=58334
loop_xfade=24784
lovel=1
lpc=kxu7QRg0fcJVnXVCYlNSwVGFhMHBvwtBl7rGQNWXB8EDYiJAJsCAQD2yL8GlXj5BmwIWwFrZccBzD00/SGV7P4uv+T9CD5zA7oWrQB2H5sD5lspAttl3QI5NIsGnxJ9A
lpc_rms=-24.29
pitch_keycenter=g#4
sample=Oboe_trill_wholetone_MF_G#4.opus
</region>

<region>
hikey=g#5
hivel=127
lokey=g5
loop_end=261213
loop_mode=loop_continuous
loop_start=57966
loop_xfade=24628
lovel=1
lpc=CJ+xQdu8O8JmrgZC8g2FQIg+jMGSX99A4hKSQJWDRr8Shw7ADbiOQCsrCcHYDgtBy4C2PxMQp8B+/KE/pN2HPyJbp0BFGoLANSVdQNMc7MA8jutANGVaQJAnCsFRPqVA
lpc_rms=-26.62
pitch_keycenter=g#5
sample=Oboe_trill_wholetone_MF_G#5.opus
</region>
</group>

<group>
group_label=Group_91-127
lpc_hicc1=127
lpc_locc1=85

<region>
hikey=a#4
hivel=127
lokey=a4
loop_end=270961
loop_mode=loop_continuous
loop_start=60129
loop_xfade=25547
lovel=1
lpc=AruNQeQmN8L9o09CRjAdwkk760F2D6HB9yPOQCwrGUE/ooTBFLRoQcZ9KcEAU7VA3z60vVPJQsBrDJdAzGeewCNQlkCNWV/A9JWZP7RtMD8l3ba/T3j1P6cuZL8Acd29
lpc_rms=-25.55
pitch_keycenter=a#4
sample=Oboe_trill_wholetone_FF_A#4.opus
</region>

<region>
hikey=a#5
hivel=127
lokey=a5
loop_end=271053
loop_mode=loop_continuous
loop_start=60149
loop_xfade=25555
lovel=1
lpc=b96BQb1uGcKXzjZCt6cIwrT9mkFuBcHAmBs2wF+zN0EoDE/BqS4wQXuAocBVwRk/+uYiQFDuhL9gIYw+GpG1PwctuT87MPq//JDhPpABjEB1zn3Ayd1VPTYSij/TslI/
lpc_rms=-21.54
pitch_keycenter=a#5
sample=Oboe_trill_wholetone_FF_A#5.opus
</region>

<region>
hivel=127
key=c4
loop_end=261369
loop_mode=loop_continuous
loop_start=58000
loop_xfade=24642
lovel=1
lpc=7RjTQR6sosKAxNVCtkOQwvf7rEFM4x6/gYMHQNQozD10Q1LA0/jzP+EFWj8jWcrAWHpSQUt2SsGnkC9A+ePlQLKODMHNK6NA5NmIvzgcAkCcCvLArso9QbTuH8FqnH5A
lpc_rms=-19.34
sample=Oboe_trill_wholetone_FF_C4.opus
</region>

<region>
hikey=c5
hivel=127
lokey=b4
loop_end=271419
loop_mode=loop_continuous
loop_start=60230
loop_xfade=25590
lovel=1
lpc=8WfDQWcTicIpyptC224RwoS/LMHdXtVBllxLwT47AUDSUJrAF6tDQC05g0CCuy7APjLNv4q5r780csVAEVJHwEu9IMAZBv0/J8FbQP/OscAsahU//8OSQL9dPsBTZGw8
lpc_rms=-25.97
pitch_keycenter=c5
sample=Oboe_trill_wholetone_FF_C5.opus
</region>

<region>
hikey=c6
hivel=127
lokey=b5
loop_end=259967
loop_mode=loop_continuous
loop_start=57689
loop_xfade=24510
lovel=1
lpc=esxhQSyWBcLHSCtCbN/zwY4AL0F4ecdAywcWwaKOGUHy7trAHA7wQJJfasCQkYw/diSQQBTPWsD2nIw/MuC0QFn5wcAMo5lAxyTRvvkk2T9ArE/AMK9MQHQShb+2IIM/
lpc_rms=-24.59
pitch_keycenter=c6
sample=Oboe_trill_wholetone_FF_C6.opus
</region>

<region>
hikey=d4
hivel=127
lokey=c#4
loop_end=271614
loop_mode=loop_continuous
loop_start=60274
loop_xfade=25608
lovel=1
lpc=5S2iQQOOXsKfZG9C/vD1wcIyNUEoLCDB0j0UQfDDjMCngCtAlU6fvwXWAsC9RNg/BE4FvV1pCkAhiGjAlwzIP7lEcj9MHAg/jm+OwPxuhUAK3xq/hqqxvtVKib7RhAM+
lpc_rms=-22.73
pitch_keycenter=d4
sample=Oboe_trill_wholetone_FF_D4.opus
</region>

<region>
hikey=d5
hivel=127
lokey=c#5
loop_end=272833
loop_mode=loop_continuous
loop_start=60544
loop_xfade=25723
lovel=1
lpc=NRQWQig5ysKr9/BCNquvwnXTOkKXyJXB2wFaQUFfVMFmE4RABg4CQRydScGW/r9AfXWlP2KZjUArXNDARENuv0FXFUBtlf4//GX+vxotDkAyvvDAvESZQadNrMHrxhtB
lpc_rms=-16.37
pitch_keycenter=d5
sample=Oboe_trill_wholetone_FF_D5.opus
</region>

<region>
hikey=d6
hivel=127
lokey=c#6
loop_end=265038
loop_mode=loop_continuous
loop_start=58814
loop_xfade=24988
lovel=1
lpc=xrv1QSjSa8Kvt3BCW68AwoxKIUElqb1AJhSnPyaBtsB7IydBfGbdPigsLEAH7FhAeLqAQBT7r8Dak5dBxuZNwdi6DEGXP1hA2XeDwWIZ6UGeA7PBJemsQUyphMHshSJB
lpc_rms=-19.94
pitch_keycenter=d6
sample=Oboe_trill_wholetone_FF_D6.opus
</region>

<region>
hikey=e4
hivel=127
lokey=d#4
loop_end=266492
loop_mode=loop_continuous
loop_start=59137
loop_xfade=25125
lovel=1
lpc=LEK9QbIXesI+VYxCH0w8wsXh6UHIg6jBGF58QYhCK8GVWAlBa/XMwO5TkUCBdMzA+yfoQNj0Hr/+J7PAbaWVQDnivb9Y7GZAbV/ewGioRkDEvaxANEUOwTaTr0AgDY+/
lpc_rms=-22.46
pitch_keycenter=e4
sample=Oboe_trill_wholetone_FF_E4.opus
</region>

<region>
hikey=e5
hivel=127
lokey=d#5
loop_end=270028
loop_mode=loop_continuous
loop_start=59922
loop_xfade=25459
lovel=1
lpc=UovKQbDLiMIBAa5CIUiIwsM0J0KzJsHB5iFdQT0djcBKB7E/yswuwMR8jkAC3Na/YjMHwDSK5UBZiQDBzii7QEZBlL8OxYK/Bzm+P4q6GL4FiHXA59YoQcwqOcFGzcVA
lpc_rms=-18.57
pitch_keycenter=e5
sample=Oboe_trill_wholetone_FF_E5.opus
</region>

<region>
hikey=G#6
hivel=127
lokey=d#6
loop_end=263953
loop_mode=loop_continuous
loop_start=58574
loop_xfade=24886
lovel=1
lpc=j3CiQRclG8Ki0CZCKLS0wcc82kBwnm5A3qKsP6fYCEBo7as76HFqQJUh3D8zh6JAQbFxwB+AMUGcX97A8kBMQSu6gMHLIIFB0U1LP5nSVcHnxa1Bg4pUweGPhEDgNgpA
lpc_rms=-22.81
pitch_keycenter=E6
sample=Oboe_trill_wholetone_FF_E6.opus
</region>

<region>
hikey=f#4
hivel=127
lokey=f4
loop_end=266134
loop_mode=loop_continuous
loop_start=59058
loop_xfade=25092
lovel=1
lpc=6AuLQQiUS8Kk44JCxoo2wuZoZkEWssdAXkguwWqAHEG0ld7AvtoHQK4Auj/tuxXAreitPxHp1T9K6vG+5reZwOOr+UAN4bTAmZn9P8Z7ib+1/xJAlOdKv3+AgL9R8RU/
lpc_rms=-22.80
pitch_keycenter=f#4
sample=Oboe_trill_wholetone_FF_F#4.opus
</region>

<region>
hikey=f#5
hivel=127
lokey=f5
loop_end=265186
loop_mode=loop_continuous
loop_start=58847
loop_xfade=25002
lovel=1
lpc=Cgr9QbvOpsKM28VC0bBrwqguTkFocs1A62JTwN9BuEA8qtbAgEo4wFvCGEFQkGg/Xk4qwfTnPUEjkA3AOEpMwKDVtz8PmsM/yRt7PNKhHMAv3ixB6jY7wT/QvEC7NBW+
lpc_rms=-17.35
pitch_keycenter=f#5
sample=Oboe_trill_wholetone_FF_F#5.opus
tune=-15
</region>

<region>
hikey=g#4
hivel=127
lokey=g4
loop_end=249467
loop_mode=loop_continuous
loop_start=55359
loop_xfade=23520
lovel=1
lpc=og+iQaZgU8L5gkhCHrF9wb56w77bgKPA9gQHQWnQb8BxBpk/SJmXvwWVfsAlUd9Ai/AywFhizz6GPdY9BdoVwKJ6z0B/+RPBAIbTQBLHw8CKlQpBlrFGwI/3eMA8dTpA
lpc_rms=-25.50
pitch_keycenter=g#4
sample=Oboe_trill_wholetone_FF_G#4.opus
</region>

<region>
hikey=g#5
hivel=127
lokey=g5
loop_end=267294
loop_mode=loop_continuous
loop_start=59315
loop_xfade=25201
lovel=1
lpc=/yShQaWqKsKX5BRCBhoGwcCc98AHttxA+axnQEB0gMCvXgE/kb/6QBFVRMECODtBeCB7wFzbmr4ZDTJATcWCPxh03T9r6LbAQiYVQZZk7MBCJbBAZlzXPyIIu8Bcr4tA
lpc_rms=-21.32
pitch_keycenter=g#5
sample=Oboe_trill_wholetone_FF_G#5.opus
</region>
</group>